<?xml version="1.0"?>
<svg xmlns="http://www.w3.org/2000/svg" id="Capa_1" enable-background="new 0 0 512 512" height="512px" viewBox="0 0 512 512" width="512px" class=""><g><circle cx="256" cy="256" fill="#ffda00" r="256" data-original="#FFDA00" class="active-path" style="fill:#00000000" data-old_color="#ffda00"/><path d="m512 256c0-4.725-.138-9.417-.39-14.078l-118.067-118.067c.525.713-1.47 4.748-4.587 10.145l-52.415-52.415-209.545 357.362 64.981 64.981c20.463 5.269 41.916 8.072 64.023 8.072 141.385 0 256-114.615 256-256z" fill="#ffa300" data-original="#FFA300" class="" style="fill:#00000000" data-old_color="#ffa300"/><path d="m220.951 446.572h-79.894v-253.798c0-69.664 56.474-126.139 126.139-126.139h36.665c23.875 0 43.229 19.354 43.229 43.229v210.569c-.001 69.665-56.475 126.139-126.139 126.139z" fill="#00a0aa" data-original="#00A0AA"/><path d="m303.86 66.635h-36.665c-11.852 0-23.32 1.638-34.195 4.694v374.667c64.011-6.067 114.089-59.963 114.089-125.563v-210.568c0-23.875-19.354-43.23-43.229-43.23z" fill="#1d747d" data-original="#1D747D" class=""/><path d="m312.28 190.72h20.425c22.222 0 40.236-18.014 40.236-40.236v-40.757l-14.835 19.304c-5.66 7.366-14.422 11.682-23.711 11.682h-22.115c-13.931 0-25.175 11.385-25.002 25.315.17 13.686 11.314 24.692 25.002 24.692z" fill="#ff8870" data-original="#FF8870"/><path d="m178.218 438.947h-51.221v-162.713c0-44.663 36.206-80.869 80.869-80.869h23.506c15.307 0 27.715 12.408 27.715 27.715v134.999c0 44.662-36.207 80.868-80.869 80.868z" fill="#00c8c8" data-original="#00C8C8" class=""/><path d="m231.372 195.365h-23.506c-5.256 0-10.389.519-15.366 1.477v240.823c37.847-6.748 66.587-39.8 66.587-79.586v-134.999c0-15.307-12.409-27.715-27.715-27.715z" fill="#1cadb5" data-original="#1CADB5" class=""/><path d="m314.162 98.21h30.325c32.992 0 59.738 26.746 59.738 59.738v60.512l-22.025-28.66c-8.404-10.935-21.412-17.345-35.204-17.345h-32.834c-20.683 0-37.377-16.903-37.12-37.584.253-20.321 16.798-36.661 37.12-36.661z" fill="#ff583e" data-original="#FF583E"/><circle cx="232.738" cy="137.292" fill="#a3d4ff" r="25.807" data-original="#A3D4FF"/><path d="m258.545 137.292c0-14.155-11.398-25.643-25.515-25.8v51.6c14.118-.157 25.515-11.645 25.515-25.8z" fill="#65b1fc" data-original="#65B1FC"/><ellipse cx="232.738" cy="137.292" fill="#0053bf" rx="13.437" ry="13.437" transform="matrix(.349 -.937 .937 .349 22.882 307.518)" data-original="#0053BF"/><path d="m246.174 137.292c0-7.323-5.86-13.265-13.145-13.422v26.844c7.286-.157 13.145-6.099 13.145-13.422z" fill="#1b3b6b" data-original="#1B3B6B" class="" style="fill:#1B3B6B"/></g> </svg>
